# Blender v2.78 (sub 0) OBJ File: 'KOA_ROCKS.blend'
# www.blender.org
o ROCK_2_Sphere.001
v 0.089393 1.076153 -0.583173
v 0.576349 0.238205 -1.105829
v 0.886366 -1.175631 -1.347129
v 0.426494 -1.488118 -0.516965
v -0.384870 1.110727 0.089677
v 0.501934 1.156261 -0.216707
v 1.286041 0.088535 -0.267584
v 1.489076 -1.289920 -0.516118
v 0.687122 -1.538207 -0.187947
v 0.580087 1.065165 0.307790
v 1.247630 0.066622 0.651013
v 1.543291 -1.251614 0.528229
v 0.745106 -1.584230 0.284310
v 0.377681 0.866768 0.648905
v 0.708007 0.143772 0.896987
v 1.166948 -1.119355 1.720464
v 0.589800 -1.575242 0.760354
v 0.013697 0.857309 0.785960
v 0.280487 0.305363 1.304628
v 0.472409 -0.893920 2.395290
v 0.264635 -1.516957 1.036451
v -0.433757 0.869090 0.780148
v -0.439093 0.330568 1.280114
v -0.398979 -0.821585 2.209012
v -0.166543 -1.488063 1.019601
v -0.866192 0.905298 0.630160
v -1.197645 0.229886 1.013665
v -1.216799 -0.995090 1.583137
v -0.602199 -1.515828 0.768134
v 0.073208 -1.548298 0.117001
v -1.145897 0.994940 0.344346
v -1.657622 0.253612 0.478357
v -2.128281 -1.149513 0.699415
v -0.834590 -1.535231 0.362217
v -1.189002 1.108675 -0.017693
v -1.709687 0.356662 -0.150072
v -1.802611 -1.038727 -0.266074
v -0.733177 -1.490097 -0.101944
v -0.968189 1.193031 -0.366651
v -1.234258 0.336087 -0.704511
v -1.022905 -0.942886 -0.996747
v -0.393441 -1.436008 -0.467576
v -0.493368 1.187795 -0.868741
v -0.515327 0.227928 -1.239248
v -0.057447 -1.034373 -1.439636
v 0.030258 -1.442564 -0.619622
v 0.424193 0.663397 -1.275948
v 1.269524 0.500378 -0.304774
v 1.292338 0.457601 0.523620
v 0.729264 0.488993 0.952392
v 0.210904 0.743317 1.137905
v -0.459021 0.597555 1.175999
v -1.142696 0.560544 1.023514
v -1.567304 0.625621 0.445493
v -1.621935 0.750065 -0.123076
v -1.134535 0.678167 -0.749783
v -0.537002 0.868437 -0.983037
v 0.831901 -0.188068 -1.293056
v 0.759669 0.022522 -1.243818
v 1.521848 -0.050590 -0.249045
v 1.603654 -0.404334 -0.254823
v 1.386191 0.033225 0.734536
v 1.472152 -0.317546 0.771495
v 0.926804 0.106254 1.225562
v 1.008408 -0.019074 1.404236
v 0.352868 0.325293 2.004058
v 0.374519 0.225148 2.239976
v -0.428103 0.351698 1.865245
v -0.421820 0.240058 2.045231
v -1.402584 0.167616 1.359107
v -1.448209 0.023176 1.449810
v -1.940827 0.081764 0.606617
v -2.019579 -0.087729 0.651830
v -1.882125 0.136895 -0.198864
v -1.906392 -0.047520 -0.211894
v -1.407533 0.126064 -0.956541
v -1.376557 -0.032559 -1.051363
v -0.432842 0.119088 -1.528261
v -0.385311 -0.091158 -1.581002
v 0.827737 -0.988592 -1.516899
v 0.693387 -0.729538 -1.179240
v 1.513541 -0.875745 -0.311204
v 1.587207 -1.121420 -0.378921
v 1.289704 -0.733431 0.693952
v 1.545711 -1.022200 0.614857
v 1.016449 -0.490055 1.557432
v 1.057266 -0.778417 1.718382
v 0.391752 -0.219786 2.163113
v 0.418306 -0.550223 2.440465
v -0.413166 -0.429862 2.124783
v -0.403715 -0.490010 2.401264
v -1.460464 -0.379329 1.512608
v -1.452730 -0.707335 1.533543
v -1.834047 -0.540135 0.710343
v -2.062545 -0.880778 0.711143
v -1.691260 -0.455274 -0.215132
v -1.777771 -0.781529 -0.253689
v -1.117416 -0.457856 -1.034248
v -1.110046 -0.750341 -1.053951
v -0.272170 -0.591792 -1.270733
v -0.177108 -0.858961 -1.499956
vt 0.3778 0.2579
vt 0.4772 0.2669
vt 0.4354 0.3641
vt 0.3589 0.2969
vt 0.3417 0.4008
vt 0.3310 0.4249
vt 0.2118 0.4249
vt 0.2304 0.4018
vt 0.6496 0.2583
vt 0.6513 0.2208
vt 0.7085 0.1978
vt 0.7685 0.2752
vt 0.2997 0.2488
vt 0.4643 0.3711
vt 0.3154 0.8303
vt 0.3239 0.8563
vt 0.2213 0.8655
vt 0.2151 0.8487
vt 0.6473 0.1337
vt 0.7422 0.1512
vt 0.3204 0.3168
vt 0.5747 0.8994
vt 0.5676 0.9301
vt 0.4495 0.8882
vt 0.4469 0.8537
vt 0.8533 0.1446
vt 0.5759 0.8054
vt 0.5778 0.8744
vt 0.4481 0.8282
vt 0.4669 0.7630
vt 0.3140 0.7910
vt 0.3206 0.7403
vt 0.2715 0.3154
vt 0.1709 0.9040
vt 0.1491 0.8739
vt 0.7434 0.0961
vt 0.8370 0.0445
vt 0.2106 0.8116
vt 0.2079 0.7642
vt 0.0727 0.3608
vt 0.1111 0.3384
vt 0.1225 0.9373
vt 0.0526 0.9119
vt 0.7191 0.0548
vt 0.7624 0.0002
vt 0.2248 0.2922
vt 0.1343 0.8536
vt 0.1137 0.8029
vt 0.0002 0.2544
vt 0.0453 0.2579
vt 0.2001 0.2534
vt 0.0297 0.8977
vt 0.0286 0.8506
vt 0.0134 0.1404
vt 0.0614 0.1553
vt 0.6755 0.0465
vt 0.0611 0.5233
vt 0.1125 0.4629
vt 0.1822 0.5076
vt 0.1401 0.5573
vt 0.6907 0.0002
vt 0.2087 0.2081
vt 0.0266 0.5952
vt 0.0434 0.5465
vt 0.1271 0.5759
vt 0.1073 0.6502
vt 0.1539 0.0253
vt 0.1586 0.0761
vt 0.6259 0.0580
vt 0.2673 0.5498
vt 0.2535 0.5918
vt 0.6101 0.0051
vt 0.2792 0.0002
vt 0.2813 0.0301
vt 0.5827 0.0855
vt 0.2435 0.1681
vt 0.3469 0.5582
vt 0.3475 0.5942
vt 0.5350 0.0391
vt 0.2498 0.6107
vt 0.2459 0.6521
vt 0.2896 0.1511
vt 0.4154 0.5403
vt 0.4222 0.5676
vt 0.5633 0.1250
vt 0.5014 0.1157
vt 0.3484 0.6133
vt 0.3467 0.6660
vt 0.3888 0.0302
vt 0.3709 0.0537
vt 0.3366 0.1684
vt 0.4890 0.5111
vt 0.5070 0.5443
vt 0.5706 0.1630
vt 0.5126 0.1844
vt 0.4278 0.5857
vt 0.4500 0.6322
vt 0.4777 0.1246
vt 0.4559 0.1407
vt 0.5988 0.1927
vt 0.5729 0.2554
vt 0.3707 0.2098
vt 0.5206 0.5572
vt 0.5547 0.5947
vt 0.5010 0.2546
vt 0.5811 0.4845
vt 0.6127 0.4982
vt 0.6288 0.5166
vt 0.6498 0.5766
vt 0.4849 0.4733
vt 0.5376 0.4252
vt 0.4041 0.4984
vt 0.3474 0.5180
vt 0.2713 0.5128
vt 0.2007 0.4799
vt 0.1471 0.4252
vt 0.1831 0.9345
vt 0.1428 0.9808
vt 0.2453 0.9024
vt 0.3269 0.8992
vt 0.4604 0.9421
vt 0.5503 0.9998
vt 0.3244 0.7120
vt 0.4810 0.7120
vt 0.2175 0.7245
vt 0.0957 0.7725
vt 0.0002 0.8149
vt 0.0866 0.6752
vt 0.0002 0.6370
vt 0.2434 0.6867
vt 0.3571 0.7117
vt 0.4611 0.6673
vt 0.5671 0.6237
vt 0.6779 0.6042
vt 0.5791 0.7682
vn -0.1225 -0.9415 -0.3140
vn -0.1592 -0.8891 -0.4291
vn 0.0496 -0.9369 -0.3461
vn 0.0129 -0.9666 -0.2557
vn 0.9680 -0.2507 0.0109
vn 0.9536 0.2444 0.1760
vn 0.9844 -0.1168 0.1313
vn 0.1526 0.7588 -0.6332
vn 0.3320 0.7877 -0.5190
vn 0.3567 0.7889 -0.5004
vn -0.0455 -0.9974 -0.0553
vn 0.8056 -0.1422 -0.5752
vn 0.4759 0.8698 -0.1303
vn 0.5049 0.8375 -0.2090
vn 0.2907 0.9567 0.0172
vn 0.2867 0.9579 0.0175
vn 0.1245 0.9901 0.0655
vn 0.0116 0.9782 0.2070
vn 0.0326 0.9991 -0.0284
vn -0.0350 0.9983 0.0471
vn 0.2574 -0.9538 -0.1547
vn 0.1390 -0.9814 -0.1320
vn 0.0063 0.8497 -0.5272
vn -0.1082 0.8583 -0.5016
vn 0.3074 0.8226 -0.4784
vn 0.3956 0.8086 -0.4356
vn 0.5628 0.7949 -0.2268
vn 0.5941 0.7906 -0.1485
vn 0.1192 -0.3767 -0.9186
vn 0.7324 -0.2022 -0.6501
vn 0.7857 0.0607 -0.6157
vn 0.7803 0.0134 -0.6253
vn 0.3516 -0.9313 0.0955
vn 0.1819 -0.9830 0.0223
vn 0.2279 0.9735 -0.0204
vn 0.5013 0.8455 0.1838
vn 0.6477 0.7614 0.0270
vn 0.9282 -0.3150 0.1979
vn 0.9080 -0.2135 0.3604
vn 0.9165 -0.2406 0.3196
vn 0.8268 0.2982 0.4768
vn 0.8734 0.1323 0.4687
vn 0.1336 0.8929 0.4300
vn 0.1797 0.9823 -0.0520
vn 0.2652 0.9365 0.2294
vn 0.4015 0.7270 0.5569
vn 0.2448 0.8623 0.4432
vn 0.3922 0.7801 0.4875
vn 0.1150 -0.9776 0.1762
vn 0.8236 -0.0249 0.5666
vn 0.8459 0.2392 0.4766
vn 0.7423 0.3077 0.5952
vn 0.7382 0.1350 0.6609
vn 0.1890 -0.9249 0.3300
vn -0.0383 -0.9586 0.2821
vn 0.7642 0.0745 0.6407
vn 0.7612 0.2521 0.5975
vn -0.1502 -0.3396 0.9285
vn -0.3167 -0.3645 0.8757
vn -0.3721 -0.3705 0.8511
vn 0.0817 0.9221 0.3782
vn -0.0356 -0.9042 0.4256
vn -0.0765 0.9970 -0.0102
vn -0.1889 0.9369 0.2940
vn 0.1892 0.8942 0.4058
vn -0.1025 -0.9515 0.2900
vn -0.1439 -0.0010 0.9896
vn -0.3290 0.0573 0.9426
vn -0.4371 0.2640 0.8598
vn -0.6550 -0.2520 0.7124
vn -0.6011 -0.3104 0.7365
vn -0.0718 0.8945 0.4412
vn -0.1523 -0.8817 0.4466
vn -0.2277 0.9691 0.0946
vn -0.2190 0.9722 0.0824
vn -0.1250 0.8419 0.5250
vn -0.7182 -0.1738 0.6738
vn -0.1894 0.8709 0.4534
vn -0.2011 -0.8965 0.3947
vn -0.1174 -0.9602 0.2535
vn -0.4796 0.8680 0.1286
vn -0.4537 0.8808 0.1353
vn -0.2982 0.7910 0.5342
vn -0.5068 0.1151 0.8544
vn -0.7167 0.2038 0.6669
vn -0.2343 -0.9141 0.3310
vn -0.1917 -0.9811 0.0244
vn -0.6116 0.7698 -0.1826
vn -0.6153 0.7712 -0.1632
vn -0.3456 0.8653 0.3631
vn -0.5357 0.7563 0.3756
vn -0.8495 -0.0986 0.5184
vn -0.8633 0.1152 0.4913
vn -0.9440 0.1754 -0.2794
vn -0.9293 0.2898 -0.2290
vn -0.9249 0.3109 -0.2190
vn -0.3401 -0.9185 -0.2018
vn -0.3278 -0.9001 -0.2870
vn -0.2035 -0.9462 -0.2516
vn -0.4159 0.7954 -0.4410
vn -0.3845 0.8082 -0.4460
vn -0.6280 0.7355 0.2542
vn -0.8913 -0.4253 -0.1572
vn -0.8411 -0.4370 -0.3188
vn -0.8285 -0.4378 -0.3492
vn -0.7096 -0.1665 -0.6847
vn -0.7566 -0.0134 -0.6538
vn -0.6849 -0.1479 -0.7134
vn -0.5591 -0.3481 -0.7525
vn -0.0377 0.9639 0.2636
vn -0.6105 0.6620 -0.4347
vn -0.5858 0.6098 -0.5338
vn -0.6113 0.3771 -0.6958
vn -0.1790 -0.9297 -0.3219
vn -0.6307 -0.4491 -0.6329
vn -0.5324 -0.4509 -0.7164
vn -0.3063 -0.5088 -0.8045
vn -0.1664 -0.5363 -0.8275
vn 0.0276 0.9893 0.1432
vn -0.2803 -0.8572 -0.4321
vn -0.3845 -0.4413 -0.8108
vn -0.5406 0.5271 -0.6557
vn -0.4206 0.3185 -0.8495
vn -0.6549 0.1981 -0.7293
vn -0.2674 0.1389 -0.9535
vn -0.7560 0.1771 -0.6301
vn -0.9656 0.2256 0.1290
vn -0.7635 0.1782 0.6208
vn -0.1500 0.2700 0.9511
vn -0.1557 0.2660 0.9513
vn -0.2896 0.1657 0.9427
vn -0.0218 0.3561 0.9342
vn 0.5453 0.0843 0.8340
vn 0.5526 0.1017 0.8272
vn 0.5717 0.1499 0.8066
vn 0.5242 0.0362 0.8508
vn 0.9994 -0.0335 0.0077
vn 0.7576 -0.0090 -0.6526
vn -0.0708 0.0688 -0.9951
vn 0.7869 0.2689 -0.5554
vn 0.9660 0.2348 0.1085
vn 0.8770 0.3719 0.3042
vn 0.9002 0.3454 0.2651
vn 0.6874 0.6386 0.3460
vn 0.6197 0.7439 0.2502
vn -0.2315 0.8238 0.5174
vn -0.0733 0.8867 0.4565
vn -0.6015 0.5976 0.5302
vn -0.6072 0.5938 0.5279
vn -0.7361 0.4926 0.4643
vn -0.9588 0.2715 -0.0832
vn -0.9244 0.2164 -0.3140
vn -0.9249 0.2169 -0.3123
vn -0.6116 0.2154 -0.7613
vn -0.7284 0.1866 -0.6593
vn -0.4683 0.2405 -0.8502
vn 0.2432 0.2933 -0.9246
vn 0.6574 0.6177 -0.4317
vn 0.8562 0.5140 0.0515
vn 0.8587 0.4870 0.1597
vn -0.1021 0.8098 0.5777
vn -0.7125 0.4015 0.5755
vn -0.5248 0.5030 0.6867
vn -0.8434 0.2931 0.4502
vn -0.8891 0.4290 -0.1593
vn -0.7851 0.1568 -0.5992
vn -0.2956 0.3426 -0.8918
vn 0.1265 0.7520 -0.6469
vn -0.0443 -0.5508 -0.8334
s 1
f 46/1/1 45/2/2 3/3/3 4/4/4
f 8/5/5 83/6/5 85/7/6 12/8/7
f 57/9/8 43/10/8 1/11/9 47/12/10
f 30/13/11 46/1/1 4/4/4
f 3/3/12 80/14/12 83/6/12 8/5/12
f 60/15/13 7/16/14 11/17/15 62/18/16
f 43/10/17 5/19/18 1/11/19
f 1/11/19 5/19/18 6/20/20
f 4/4/4 3/3/3 8/5/21 9/21/22
f 78/22/23 44/23/24 2/24/25 59/25/26
f 47/12/10 1/11/9 6/20/27 48/26/28
f 30/13/11 4/4/4 9/21/22
f 100/27/29 79/28/29 58/29/29 81/30/29
f 81/30/30 58/29/31 61/31/32 82/32/30
f 9/21/22 8/5/21 12/8/33 13/33/34
f 62/18/16 11/17/15 15/34/35 64/35/36
f 48/26/28 6/20/27 10/36/37 49/37/37
f 30/13/11 9/21/22 13/33/34
f 82/32/38 61/31/38 63/38/39 84/39/40
f 12/8/7 85/7/6 87/40/41 16/41/42
f 6/20/20 5/19/18 10/36/43
f 64/35/36 15/34/35 19/42/44 66/43/45
f 49/37/46 10/36/43 14/44/47 50/45/48
f 30/13/11 13/33/34 17/46/49
f 84/39/40 63/38/39 65/47/50 86/48/51
f 16/41/42 87/40/41 89/49/52 20/50/53
f 10/36/43 5/19/18 14/44/47
f 13/33/34 12/8/33 16/41/54 17/46/49
f 30/13/11 17/46/49 21/51/55
f 86/48/51 65/47/50 67/52/56 88/53/57
f 20/50/58 89/49/58 91/54/59 24/55/60
f 14/44/47 5/19/18 18/56/61
f 17/46/49 16/41/54 20/50/62 21/51/55
f 66/57/45 19/58/44 23/59/63 68/60/64
f 50/45/48 14/44/47 18/56/61 51/61/65
f 30/13/11 21/51/55 25/62/66
f 88/63/67 67/64/67 69/65/68 90/66/69
f 24/55/60 91/54/59 93/67/70 28/68/71
f 18/56/61 5/19/18 22/69/72
f 21/51/55 20/50/62 24/55/73 25/62/66
f 68/60/64 23/59/63 27/70/74 70/71/75
f 51/61/65 18/56/61 22/69/72 52/72/76
f 28/68/71 93/67/70 95/73/77 33/74/77
f 22/69/72 5/19/18 26/75/78
f 25/62/66 24/55/73 28/68/79 29/76/80
f 70/71/75 27/70/74 32/77/81 72/78/82
f 52/72/76 22/69/72 26/75/78 53/79/83
f 30/13/11 25/62/66 29/76/80
f 90/66/69 69/65/68 71/80/84 92/81/85
f 29/76/80 28/68/79 33/74/86 34/82/87
f 72/78/82 32/77/81 36/83/88 74/84/89
f 53/79/83 26/75/78 31/85/90 54/86/91
f 30/13/11 29/76/80 34/82/87
f 92/81/85 71/80/92 73/87/92 94/88/93
f 33/74/94 95/73/95 97/89/96 37/90/94
f 26/75/78 5/19/18 31/85/90
f 34/82/87 33/74/97 37/90/98 38/91/99
f 74/84/89 36/83/88 40/92/100 76/93/101
f 54/86/91 31/85/90 35/94/102 55/95/102
f 30/13/11 34/82/87 38/91/99
f 94/88/103 73/87/103 75/96/104 96/97/105
f 37/90/106 97/89/107 99/98/108 41/99/109
f 31/85/90 5/19/18 35/94/110
f 55/95/111 35/94/111 39/100/112 56/101/113
f 30/13/11 38/91/99 42/102/114
f 96/97/105 75/96/104 77/103/115 98/104/116
f 41/99/109 99/98/108 101/105/117 45/2/118
f 35/94/110 5/19/18 39/100/119
f 38/91/99 37/90/98 41/99/120 42/102/114
f 76/93/101 40/92/100 44/106/24 78/107/23
f 30/13/11 42/102/114 46/1/1
f 98/104/116 77/103/115 79/108/121 100/109/121
f 39/100/119 5/19/18 43/10/17
f 42/102/114 41/99/120 45/2/2 46/1/1
f 56/101/113 39/100/112 43/10/122 57/9/123
f 40/92/124 56/110/113 57/111/123 44/106/125
f 36/83/126 55/112/126 56/110/113 40/92/124
f 32/77/127 54/113/127 55/112/127 36/83/127
f 27/70/128 53/114/128 54/113/128 32/77/128
f 23/59/129 52/115/130 53/114/131 27/70/131
f 19/58/132 51/116/132 52/115/130 23/59/129
f 15/34/133 50/117/134 51/118/135 19/42/135
f 11/17/136 49/119/136 50/117/134 15/34/133
f 7/16/137 48/120/137 49/119/137 11/17/137
f 2/24/138 47/121/138 48/120/138 7/16/138
f 44/23/125 57/122/123 47/121/139 2/24/139
f 59/25/140 60/15/140 61/31/32 58/29/31
f 60/15/141 62/18/142 63/38/143 61/31/141
f 62/18/142 64/35/36 65/47/144 63/38/143
f 67/52/145 65/47/144 64/35/36 66/43/45
f 69/65/146 67/64/147 66/57/45 68/60/64
f 71/80/148 69/65/146 68/60/64 70/71/149
f 70/71/149 72/78/150 73/87/150 71/80/148
f 72/78/151 74/84/152 75/96/153 73/87/151
f 77/103/154 75/96/153 74/84/152 76/93/155
f 79/108/156 77/103/154 76/93/155 78/107/156
f 78/22/157 59/25/157 58/29/157 79/28/157
f 59/25/26 2/24/25 7/16/14 60/15/13
f 83/123/158 80/124/158 81/30/158 82/32/158
f 85/125/6 83/123/159 82/32/159 84/39/160
f 87/126/41 85/125/6 84/39/160 86/48/51
f 86/48/51 88/53/57 89/127/52 87/126/41
f 88/63/161 90/66/161 91/128/161 89/129/161
f 93/130/162 91/128/163 90/66/69 92/81/85
f 95/131/164 93/130/162 92/81/85 94/88/93
f 97/132/96 95/131/95 94/88/165 96/97/165
f 96/97/166 98/104/166 99/133/108 97/132/107
f 98/104/167 100/109/167 101/134/167 99/133/167
f 80/124/168 101/135/168 100/27/168 81/30/168
f 45/2/118 101/105/117 80/14/169 3/3/169
