# Blender v2.78 (sub 0) OBJ File: ''
# www.blender.org
o Icosphere.001_Icosphere.004
v -2.142488 -0.121755 6.761253
v -1.864169 -0.300348 7.140179
v -2.499330 -0.244883 7.138064
v -1.226231 -0.264867 7.403434
v -1.249628 -0.065538 7.026157
v -2.606267 -0.064038 6.505143
v -2.006994 -0.111261 6.152897
v -1.663280 -0.138773 6.604977
v -1.104127 0.161766 7.312250
v -2.871408 -0.292461 7.349378
v -2.077379 -0.302948 7.674233
v -2.618937 -0.191148 7.700007
v -2.853669 0.158072 6.223498
v -3.033822 -0.062222 6.744633
v -3.098876 0.320548 6.422151
v -1.897809 0.052172 5.767910
v -2.469961 0.099665 6.002807
v -2.230003 0.286185 5.771489
v -1.346880 -0.018587 6.503602
v -1.440833 -0.119422 5.986754
v -1.255688 0.131720 6.148525
v -1.501977 0.100350 7.859421
v -3.150079 0.009764 7.112638
v -2.724486 0.423895 5.986512
v -1.493217 0.096407 5.595377
v -1.108360 0.111876 6.784790
v -2.051085 0.447282 7.588228
v -1.467658 0.612574 7.363114
v -2.444103 1.484443 6.904778
v -3.107369 0.422432 6.770175
v -2.980652 0.721982 7.117631
v -2.772337 1.036290 6.635812
v -2.513887 0.572377 5.962194
v -2.899780 0.613195 6.284171
v -2.385416 0.877772 6.188920
v -1.367161 0.236853 5.707091
v -1.867387 0.451139 5.693143
v -1.807374 0.819276 6.142435
v -1.175450 0.388627 6.753240
v -1.317905 0.425554 6.315468
v -1.843250 1.025290 6.654285
v -2.205416 1.172566 6.556001
vt 0.2657 0.2200
vt 0.1565 0.2634
vt 0.1855 0.1316
vt 0.0726 0.3886
vt 0.1725 0.3987
vt 0.3467 0.1322
vt 0.4014 0.2680
vt 0.2817 0.3248
vt 0.5371 0.1893
vt 0.6238 0.1704
vt 0.5913 0.2457
vt 0.1487 0.0465
vt 0.0416 0.2016
vt 0.0638 0.0893
vt 0.4349 0.0928
vt 0.3085 0.0353
vt 0.4085 0.0375
vt 0.4957 0.3055
vt 0.4670 0.1792
vt 0.5221 0.2394
vt 0.2998 0.3959
vt 0.4167 0.3915
vt 0.3871 0.4285
vt 0.5225 0.3409
vt 0.3280 0.5313
vt 0.3768 0.4389
vt 0.3768 0.5950
vt 0.8987 0.8595
vt 0.8750 0.8112
vt 0.9751 0.8431
vt 0.5221 0.3962
vt 0.2333 0.4385
vt 0.1533 0.6883
vt 0.0454 0.7539
vt 0.0002 0.4389
vt 0.8324 0.7413
vt 0.8209 0.6313
vt 0.9457 0.6400
vt 0.5723 0.7562
vt 0.5274 0.6559
vt 0.6369 0.6989
vt 0.7170 0.9807
vt 0.6550 0.8920
vt 0.7254 0.7855
vt 0.7148 0.2076
vt 0.8020 0.1573
vt 0.8513 0.3493
vt 0.6736 0.1579
vt 0.1144 0.4231
vt 0.3276 0.6619
vt 0.1569 0.8523
vt 0.2790 0.7691
vt 0.0002 0.3215
vt 0.7258 0.7641
vt 0.7807 0.8272
vt 0.2325 0.0002
vt 0.5806 0.8572
vt 0.5225 0.7460
vt 0.5004 0.1312
vt 0.7921 0.0751
vt 0.8972 0.0002
vt 0.8853 0.0348
vt 0.8042 0.0164
vt 0.6600 0.3576
vt 0.3276 0.4827
vt 0.1957 0.4414
vt 0.9426 0.7724
vt 0.6757 0.9998
vt 0.9050 0.5070
vt 0.9105 0.3834
vt 0.6103 0.5648
vt 0.7254 0.5074
vt 0.7158 0.6291
vt 0.9751 0.5074
vt 0.9105 0.2329
vn -0.0669 -0.9725 -0.2232
vn 0.0389 -0.9812 -0.1892
vn -0.0368 -0.9721 -0.2315
vn 0.6526 -0.7385 0.1696
vn 0.6242 -0.7560 -0.1968
vn -0.1879 -0.9343 -0.3028
vn -0.1479 -0.9585 -0.2438
vn 0.1416 -0.9847 -0.1014
vn 0.9566 0.1282 0.2617
vn -0.5186 -0.8263 0.2196
vn 0.0037 -0.8414 0.5404
vn -0.4096 -0.3258 0.8521
vn -0.5601 -0.5844 -0.5871
vn -0.6023 -0.7354 -0.3104
vn -0.9199 -0.0053 -0.3920
vn -0.2522 -0.7076 -0.6600
vn -0.3922 -0.6821 -0.6172
vn -0.3666 -0.1239 -0.9221
vn 0.5280 -0.8454 -0.0805
vn 0.4357 -0.8565 -0.2767
vn 0.9654 -0.1751 -0.1930
vn 0.3560 0.0506 0.9331
vn -0.9379 -0.2321 0.2579
vn -0.5758 0.0877 -0.8129
vn 0.3142 -0.3431 -0.8852
vn 0.9469 -0.2858 -0.1473
vn -0.1133 0.5066 0.8547
vn 0.5311 0.7022 0.4741
vn -0.1535 0.9819 0.1108
vn -0.9583 0.2835 -0.0366
vn -0.7494 0.4567 0.4793
vn -0.6721 0.6552 -0.3448
vn -0.3453 0.5153 -0.7843
vn -0.7157 0.4886 -0.4990
vn -0.2181 0.7343 -0.6428
vn 0.7742 0.2145 -0.5954
vn -0.0143 0.4726 -0.8811
vn 0.3735 0.7955 -0.4772
vn 0.8697 0.4843 -0.0954
vn 0.8109 0.5406 -0.2239
vn 0.5944 0.7941 -0.1266
vn 0.1216 0.8274 -0.5481
s 1
f 1/1/1 2/2/2 3/3/3
f 4/4/4 2/2/2 5/5/5
f 1/1/1 3/3/3 6/6/6
f 1/1/1 6/6/6 7/7/7
f 1/1/1 7/7/7 8/8/8
f 4/9/4 5/10/5 9/11/9
f 10/12/10 11/13/11 12/14/12
f 13/15/13 14/16/14 15/17/15
f 16/18/16 17/19/17 18/20/18
f 19/21/19 20/22/20 21/23/21
f 4/9/4 9/11/9 22/24/22
f 10/25/10 12/26/12 23/27/23
f 13/28/13 15/29/15 24/30/24
f 16/18/16 18/20/18 25/31/25
f 19/21/19 21/23/21 26/32/26
f 27/33/27 28/34/28 29/35/29
f 30/36/30 31/37/31 32/38/32
f 33/39/33 34/40/34 35/41/35
f 36/42/36 37/43/37 38/44/38
f 39/45/39 40/46/40 41/47/41
f 3/3/3 11/13/11 10/12/10
f 3/3/3 2/2/2 11/13/11
f 2/2/2 4/4/4 11/13/11
f 5/5/5 8/8/8 19/21/19
f 5/5/5 2/2/2 8/8/8
f 2/2/2 1/1/1 8/8/8
f 6/6/6 14/16/14 13/15/13
f 6/6/6 3/3/3 14/16/14
f 3/3/3 10/12/10 14/16/14
f 7/7/7 17/19/17 16/18/16
f 7/7/7 6/6/6 17/19/17
f 6/6/6 13/15/13 17/19/17
f 8/8/8 20/22/20 19/21/19
f 8/8/8 7/7/7 20/22/20
f 7/7/7 16/18/16 20/22/20
f 9/11/9 26/48/26 39/45/39
f 9/49/9 5/5/5 26/32/26
f 5/5/5 19/21/19 26/32/26
f 12/50/12 22/51/22 27/33/27
f 12/50/12 11/52/11 22/51/22
f 11/13/11 4/4/4 22/53/22
f 15/29/15 23/54/23 30/36/30
f 15/29/15 14/55/14 23/54/23
f 14/16/14 10/12/10 23/56/23
f 18/57/18 24/58/24 33/39/33
f 18/20/18 17/19/17 24/59/24
f 17/19/17 13/15/13 24/59/24
f 21/60/21 25/61/25 36/62/36
f 21/60/21 20/63/20 25/61/25
f 20/22/20 16/18/16 25/31/25
f 22/51/22 28/34/28 27/33/27
f 22/24/22 9/11/9 28/64/28
f 9/11/9 39/45/39 28/64/28
f 23/54/23 31/37/31 30/36/30
f 23/65/23 12/50/12 31/66/31
f 12/50/12 27/33/27 31/66/31
f 24/58/24 34/40/34 33/39/33
f 24/30/24 15/29/15 34/67/34
f 15/29/15 30/36/30 34/67/34
f 25/68/25 37/43/37 36/42/36
f 25/68/25 18/57/18 37/43/37
f 18/57/18 33/39/33 37/43/37
f 26/48/26 40/46/40 39/45/39
f 26/48/26 21/60/21 40/46/40
f 21/60/21 36/62/36 40/46/40
f 29/69/29 41/47/41 42/70/42
f 29/69/29 28/64/28 41/47/41
f 28/64/28 39/45/39 41/47/41
f 32/71/32 29/72/29 42/73/42
f 32/38/32 31/37/31 29/74/29
f 31/66/31 27/33/27 29/35/29
f 35/41/35 32/71/32 42/73/42
f 35/41/35 34/40/34 32/71/32
f 34/67/34 30/36/30 32/38/32
f 38/44/38 35/41/35 42/73/42
f 38/44/38 37/43/37 35/41/35
f 37/43/37 33/39/33 35/41/35
f 41/47/41 38/75/38 42/70/42
f 41/47/41 40/46/40 38/75/38
f 40/46/40 36/62/36 38/75/38
