# Blender v2.78 (sub 0) OBJ File: ''
# www.blender.org
o Cube_Cube.001
v -0.519798 -0.094757 1.201905
v -0.519798 -0.094757 -1.201905
v 0.519798 -0.094757 1.201905
v 0.519798 -0.094757 -1.201905
v -0.445018 0.136714 1.028994
v -0.519798 0.081125 1.201905
v -0.445018 0.136714 -1.028994
v -0.519798 0.081125 -1.201905
v 0.445018 0.136714 1.028994
v 0.519798 0.081125 1.201905
v 0.445018 0.136714 -1.028994
v 0.519798 0.081125 -1.201905
vt 0.8687 0.4737
vt 0.8676 0.7934
vt 0.1313 0.7968
vt 0.1324 0.4772
vt 0.9340 0.3758
vt 0.9344 0.4394
vt 0.0656 0.4438
vt 0.0653 0.3802
vt 0.9321 0.0001
vt 0.0634 0.0045
vt 0.9999 0.8267
vt 0.9344 0.8267
vt 0.9999 0.4394
vt 0.0656 0.8312
vt 0.0001 0.4438
vt 0.0001 0.8312
vn 0.2716 0.9568 -0.1032
vn -0.2716 0.9568 -0.1032
vn -0.2716 0.9568 0.1032
vn 0.2716 0.9568 0.1032
vn 0.5773 -0.5773 -0.5773
vn 0.6045 0.4926 -0.6260
vn 0.6045 0.4926 0.6260
vn 0.5773 -0.5773 0.5773
vn 0.0000 -0.7071 -0.7071
vn 0.0000 -0.7071 0.7071
vn -0.1191 0.6140 -0.7803
vn -0.1191 0.6140 0.7803
s 1
f 11/1/1 7/2/2 5/3/3 9/4/4
f 4/5/5 12/6/6 10/7/7 3/8/8
f 2/9/9 4/5/5 3/8/8 1/10/10
f 2/11/9 8/12/11 12/6/6 4/13/5
f 5/3/3 7/2/2 8/12/11 6/14/12
f 7/2/2 11/1/1 12/6/6 8/12/11
f 11/1/1 9/4/4 10/7/7 12/6/6
f 9/4/4 5/3/3 6/14/12 10/7/7
f 3/15/8 10/7/7 6/14/12 1/16/10
